<?xml version="1.0" standalone="no"?>
<!DOCTYPE svg PUBLIC "-//W3C//DTD SVG 20010904//EN"
 "http://www.w3.org/TR/2001/REC-SVG-20010904/DTD/svg10.dtd">
<svg version="1.0" xmlns="http://www.w3.org/2000/svg"
 width="426.000000pt" height="426.000000pt" viewBox="0 0 426.000000 426.000000"
 preserveAspectRatio="xMidYMid meet">

<g transform="translate(0.000000,426.000000) scale(0.100000,-0.100000)"
fill="#000000" stroke="none">
<path d="M2034 4068 c-14 -40 -33 -88 -40 -107 -18 -42 -18 -41 7 -41 13 0 23
10 30 30 10 27 15 30 54 30 40 0 44 -2 50 -30 5 -24 12 -30 32 -30 13 0 23 4
21 9 -71 185 -84 211 -105 211 -17 0 -26 -13 -49 -72z m60 -14 c10 -26 7 -34
-15 -34 -15 0 -19 4 -15 16 3 9 6 20 6 25 0 15 17 10 24 -7z"/>
<path d="M1830 4114 c0 -8 5 -58 12 -110 10 -83 14 -94 31 -94 18 0 19 5 13
73 -13 130 -17 147 -37 147 -11 0 -19 -7 -19 -16z"/>
<path d="M2305 4118 c-9 -24 -32 -198 -27 -203 17 -17 32 2 43 53 l13 57 14
-62 c17 -79 36 -82 75 -13 29 51 42 64 34 33 -3 -10 -8 -34 -11 -54 -5 -31 -3
-37 13 -42 22 -5 23 -4 41 126 7 43 10 80 8 82 -2 2 -12 5 -23 7 -14 2 -25 -9
-43 -42 -57 -106 -54 -105 -72 -15 -13 70 -18 80 -38 83 -12 2 -24 -3 -27 -10z"/>
<path d="M1620 4092 c-57 -13 -76 -21 -78 -35 -3 -16 2 -18 34 -15 l39 3 11
-60 c19 -106 22 -114 44 -108 21 6 22 3 -6 114 -8 31 -14 59 -14 62 0 4 15 9
34 12 27 6 33 11 29 26 -3 10 -8 19 -12 18 -3 0 -40 -8 -81 -17z"/>
<path d="M1380 4025 c0 -2 9 -29 21 -60 12 -31 19 -58 17 -60 -2 -3 -33 16
-69 41 -97 67 -106 57 -63 -64 39 -108 43 -115 63 -103 11 7 10 19 -7 67 -11
33 -19 60 -17 62 2 2 32 -17 66 -42 68 -50 68 -50 87 -38 12 8 11 11 -50 175
-6 16 -17 27 -29 27 -10 0 -19 -2 -19 -5z"/>
<path d="M2730 4010 c-34 -34 -26 -66 25 -102 48 -34 60 -68 24 -68 -32 0 -59
19 -59 41 0 22 -26 37 -41 22 -17 -17 2 -64 35 -84 62 -38 126 -15 126 44 0
26 -9 37 -69 85 -26 20 -22 42 8 42 19 0 51 -30 51 -47 0 -9 22 -23 36 -23 8
0 4 42 -6 61 -12 22 -61 49 -90 49 -11 0 -29 -9 -40 -20z"/>
<path d="M2964 3834 c-36 -76 -43 -99 -32 -105 7 -5 16 -9 19 -9 3 0 26 45 51
99 37 81 43 101 31 105 -8 3 -17 6 -20 6 -2 0 -25 -43 -49 -96z"/>
<path d="M1065 3884 c-33 -19 -64 -35 -70 -37 -10 -4 85 -197 97 -197 6 0 124
66 137 76 2 2 1 10 -3 19 -5 13 -13 12 -58 -12 -29 -15 -56 -29 -59 -31 -3 -1
-11 9 -17 23 -11 24 -9 26 38 50 44 22 49 28 40 45 -10 18 -12 18 -55 -7 -37
-20 -48 -23 -60 -13 -22 18 -19 22 35 53 51 29 55 34 42 53 -5 8 -26 1 -67
-22z"/>
<path d="M3142 3808 c-75 -111 -93 -158 -61 -158 5 0 24 23 41 50 17 28 35 50
39 50 5 0 9 -37 11 -82 3 -71 6 -83 20 -83 24 0 129 166 116 183 -17 20 -24
15 -59 -43 -18 -30 -37 -55 -41 -55 -4 0 -9 39 -10 87 -2 54 -7 88 -15 90 -6
2 -24 -15 -41 -39z"/>
<path d="M1790 3768 c-132 -23 -348 -92 -453 -144 -496 -248 -829 -682 -939
-1226 -31 -151 -33 -470 -5 -618 61 -322 204 -613 416 -850 l62 -70 57 6 c107
10 120 15 228 82 218 135 312 167 494 166 86 -1 147 -6 195 -19 39 -10 221
-78 405 -152 436 -175 503 -199 623 -219 117 -20 210 -14 272 16 52 25 206
177 289 285 310 400 427 906 325 1405 -104 508 -441 945 -909 1180 -115 57
-140 68 -278 111 -226 70 -541 89 -782 47z m825 -180 c30 -14 39 -43 32 -106
-4 -34 -12 -53 -32 -70 -32 -27 -46 -24 -127 25 -83 49 -117 53 -159 15 -32
-28 -34 -34 -34 -94 0 -51 3 -62 15 -59 8 2 56 6 105 8 82 4 93 3 124 -19 19
-12 49 -43 66 -68 25 -36 40 -47 77 -56 63 -16 86 -30 108 -67 30 -49 26 -102
-10 -139 -25 -25 -37 -30 -63 -25 -23 3 -39 -1 -56 -14 -15 -12 -39 -19 -68
-19 -53 0 -83 14 -83 39 0 22 26 31 88 31 59 0 86 28 79 82 -6 42 -31 78 -54
78 -8 0 -31 -11 -51 -25 -76 -52 -183 -22 -256 71 -22 30 -45 54 -51 54 -14 0
-95 -75 -95 -87 0 -6 11 -14 25 -17 50 -13 80 -94 52 -142 -67 -117 -180 -166
-382 -168 -109 -1 -124 1 -169 24 -103 52 -181 157 -193 259 -5 44 -2 56 21
91 30 46 63 53 96 20 26 -26 26 -62 0 -85 -16 -14 -23 -16 -32 -7 -33 33 -55
-16 -31 -67 18 -37 83 -71 126 -65 60 7 104 55 192 209 58 102 98 135 162 135
33 0 46 -5 62 -25 44 -57 36 -104 -37 -212 -57 -85 -57 -87 -35 -73 10 7 36
35 56 64 74 102 102 135 125 147 32 18 42 39 48 102 8 94 14 112 44 149 46 56
81 58 168 13 38 -20 78 -35 88 -33 22 4 31 28 10 28 -20 0 -56 35 -56 55 0 21
36 55 60 55 10 0 31 -5 45 -12z m229 -908 c76 -29 166 -113 202 -188 47 -100
24 -214 -66 -322 l-37 -45 91 3 c50 1 115 3 144 5 28 1 52 -1 52 -5 0 -5 -20
-34 -44 -65 l-44 -58 -4 -245 c-5 -270 -10 -295 -71 -358 -97 -102 -188 -111
-402 -43 -71 23 -145 42 -163 43 -19 0 -70 -18 -119 -41 -113 -55 -148 -59
-224 -31 -64 23 -75 22 -169 -5 -69 -19 -118 -10 -215 40 -63 33 -76 37 -125
32 -30 -3 -101 -21 -157 -40 -129 -44 -202 -53 -266 -33 -90 27 -163 95 -180
166 -3 14 -11 140 -18 280 l-12 255 -41 47 c-23 27 -41 51 -41 55 0 8 135 6
228 -3 31 -3 57 -3 57 0 0 4 -20 30 -44 60 -60 74 -80 129 -74 208 6 82 39
150 104 213 79 76 144 98 275 93 100 -3 108 -5 219 -55 165 -74 181 -77 380
-77 202 0 245 8 399 79 55 25 119 50 143 55 62 13 155 4 222 -20z"/>
<path d="M2348 3273 c-30 -8 -22 -55 15 -90 61 -58 100 -66 155 -33 28 17 33
25 30 52 -5 48 -54 78 -127 77 -31 -1 -64 -3 -73 -6z"/>
<path d="M1293 2563 c-89 -31 -145 -140 -123 -239 21 -94 69 -155 155 -195 53
-25 71 -29 153 -29 94 0 145 13 170 42 21 26 34 183 21 247 -9 45 -20 64 -53
97 -84 80 -222 113 -323 77z"/>
<path d="M2664 2559 c-28 -10 -69 -35 -91 -54 -59 -50 -75 -99 -75 -223 1
-124 3 -133 44 -157 40 -23 191 -33 255 -16 61 17 134 71 168 126 27 43 30 57
30 130 0 72 -3 86 -27 122 -56 85 -189 117 -304 72z"/>
<path d="M2043 2508 c-82 -87 -98 -194 -90 -618 4 -259 6 -278 27 -323 31 -65
74 -101 114 -93 72 15 102 78 117 252 14 158 5 541 -16 636 -15 75 -32 111
-70 151 -33 35 -44 34 -82 -5z"/>
<path d="M2507 1818 c-3 -150 -8 -285 -12 -300 l-7 -28 123 0 c105 0 129 3
167 21 71 35 77 58 74 292 -1 109 2 214 6 235 l9 37 -151 0 c-83 0 -163 4
-178 8 l-26 9 -5 -274z"/>
<path d="M1310 1848 c0 -223 1 -236 23 -278 32 -65 58 -74 215 -78 127 -4 134
-3 129 14 -14 49 -20 137 -26 344 l-6 225 -60 -5 c-91 -8 -206 -6 -242 3 l-33
9 0 -234z"/>
<path d="M851 3751 c-16 -10 -16 -10 57 -114 48 -70 56 -77 69 -64 14 13 8 25
-43 101 -33 47 -61 85 -64 85 -3 1 -11 -3 -19 -8z"/>
<path d="M3363 3595 c-35 -41 -63 -79 -63 -84 0 -5 26 -32 59 -60 50 -43 60
-49 71 -36 10 11 5 20 -26 47 -20 18 -42 36 -48 40 -7 5 -4 14 9 28 l21 20 41
-35 c34 -29 43 -32 53 -20 9 11 4 21 -29 51 -33 29 -39 39 -30 50 17 21 28 17
72 -22 36 -33 41 -35 50 -18 8 14 1 26 -44 65 -30 27 -58 48 -64 48 -5 0 -38
-33 -72 -74z"/>
<path d="M651 3590 l-44 -38 28 -34 c92 -110 115 -130 130 -118 13 11 11 16
-10 44 l-24 31 28 30 c40 42 45 67 20 98 -31 40 -73 36 -128 -13z m97 -22 c4
-19 -34 -61 -50 -56 -26 9 -33 36 -13 58 22 24 58 23 63 -2z"/>
<path d="M453 3381 c-9 -14 -9 -23 1 -37 8 -11 24 -37 36 -59 12 -22 31 -57
43 -77 11 -21 24 -38 28 -38 16 0 20 41 5 61 -13 20 -13 24 7 51 19 25 26 28
58 23 25 -4 39 -2 48 8 11 14 -31 32 -194 81 -14 4 -24 0 -32 -13z m94 -49 c8
-5 8 -12 -2 -25 -13 -18 -14 -18 -24 2 -6 11 -11 22 -11 25 0 8 23 7 37 -2z"/>
<path d="M3635 3344 c-93 -73 -90 -71 -75 -89 11 -13 18 -11 56 21 24 19 44
33 44 30 0 -3 -14 -29 -31 -57 -41 -65 -30 -81 38 -56 69 25 73 21 24 -21 -36
-32 -41 -40 -29 -50 12 -10 30 0 96 51 44 34 81 65 81 68 1 3 -5 13 -12 22
-11 16 -17 16 -86 -8 -41 -14 -76 -25 -78 -25 -2 0 17 30 42 67 42 63 43 68
28 85 -9 10 -19 18 -22 18 -3 0 -37 -25 -76 -56z"/>
<path d="M325 3180 c-54 -20 -81 -94 -46 -129 30 -30 55 -26 101 15 24 22 46
34 55 30 36 -14 -1 -76 -46 -76 -22 0 -29 -5 -29 -20 0 -16 7 -20 35 -20 94 0
128 149 36 158 -28 3 -40 -3 -72 -34 -30 -29 -42 -35 -51 -26 -19 19 6 60 39
64 16 2 29 10 31 19 4 19 -25 29 -53 19z"/>
<path d="M3810 3063 c-56 -47 -61 -109 -12 -158 48 -48 154 -22 182 44 41 100
-86 185 -170 114z m130 -45 c13 -25 13 -31 0 -55 -34 -60 -113 -60 -135 1 -9
25 -6 31 24 58 42 38 88 36 111 -4z"/>
<path d="M130 2841 c0 -15 13 -24 55 -37 30 -10 55 -21 55 -25 0 -5 -19 -13
-42 -19 -107 -28 -131 -41 -111 -61 5 -5 53 -25 106 -44 77 -28 97 -32 97 -20
0 8 0 18 1 22 0 4 -28 17 -63 29 l-63 21 55 16 c30 9 68 19 83 23 27 6 46 29
34 40 -7 7 -187 74 -198 74 -5 0 -9 -9 -9 -19z"/>
<path d="M4010 2799 c-30 -12 -74 -28 -97 -36 -45 -16 -48 -20 -34 -41 7 -11
15 -11 46 2 31 13 40 14 47 4 13 -22 9 -38 -22 -82 -19 -27 -28 -49 -24 -59
11 -29 19 -22 80 61 1 2 11 -2 23 -9 28 -18 73 -1 85 32 6 18 3 41 -14 87 -13
34 -25 62 -29 61 -3 0 -31 -9 -61 -20z m60 -68 c21 -65 -19 -89 -46 -26 -21
51 -19 55 27 64 3 0 12 -17 19 -38z"/>
<path d="M37 2540 c-4 -16 1 -21 32 -26 20 -3 66 -14 103 -23 71 -19 78 -18
78 9 0 13 -22 22 -97 38 -118 27 -110 26 -116 2z"/>
<path d="M3960 2481 c0 -13 9 -21 34 -25 29 -6 35 -11 41 -43 6 -32 3 -39 -19
-56 -28 -20 -37 -63 -11 -53 8 3 53 31 100 62 56 37 85 63 85 75 0 11 -2 19
-4 19 -3 0 -35 6 -73 14 -137 28 -153 28 -153 7z m155 -50 c3 -6 -3 -15 -14
-20 -27 -15 -31 -14 -31 9 0 21 33 29 45 11z"/>
<path d="M110 2120 c-27 -27 -25 -55 6 -79 33 -26 49 -26 74 -1 25 25 25 55 0
80 -11 11 -29 20 -40 20 -11 0 -29 -9 -40 -20z"/>
<path d="M4020 2120 c-11 -11 -20 -29 -20 -40 0 -19 36 -60 53 -60 13 0 51 22
59 34 21 31 -12 86 -52 86 -11 0 -29 -9 -40 -20z"/>
<path d="M4080 1694 c-8 -1 -40 -6 -71 -9 -89 -10 -85 -29 24 -112 49 -37 92
-68 95 -68 17 0 7 42 -15 61 -24 20 -24 24 -13 58 10 32 15 36 45 36 24 0 34
5 38 20 5 18 0 20 -41 19 -26 -1 -54 -3 -62 -5z m-10 -51 c0 -5 -5 -15 -10
-23 -8 -13 -13 -12 -32 8 l-22 22 32 0 c18 0 32 -3 32 -7z"/>
<path d="M188 1518 c-80 -27 -105 -46 -80 -62 4 -3 52 9 105 25 79 25 97 34
97 50 0 25 -16 23 -122 -13z"/>
<path d="M3845 1518 c-8 -30 14 -60 46 -65 11 -2 57 -18 105 -37 71 -29 86
-32 91 -20 3 9 2 19 -3 24 -15 15 -186 80 -196 74 -4 -3 -8 -1 -8 3 0 5 -6 18
-14 29 -14 18 -15 18 -21 -8z"/>
<path d="M248 1386 c-47 -22 -89 -44 -92 -47 -5 -5 47 -135 58 -146 2 -2 10
-1 19 3 14 5 13 12 -8 61 -27 60 -26 68 6 76 17 5 24 -2 41 -44 21 -51 25 -54
46 -41 9 6 7 18 -8 50 -24 50 -25 58 -4 66 23 9 30 1 50 -49 15 -41 36 -57 47
-37 6 9 -40 123 -56 138 -9 8 -34 1 -99 -30z"/>
<path d="M3832 1340 c-10 -11 -30 -42 -44 -70 l-26 -50 96 -50 c70 -35 98 -46
104 -37 13 20 9 27 -27 44 -19 9 -35 22 -35 29 0 22 43 44 86 44 29 0 44 5 48
16 10 25 9 26 -46 23 -48 -3 -53 -1 -56 19 -4 24 -37 52 -64 52 -9 0 -26 -9
-36 -20z m58 -50 c0 -27 -21 -70 -34 -70 -6 0 -18 4 -26 10 -12 8 -12 13 3 44
19 40 57 51 57 16z"/>
<path d="M383 1164 c-14 -22 -15 -32 -5 -70 17 -64 16 -76 -10 -72 -29 4 -47
51 -31 78 10 14 9 21 -2 30 -23 19 -45 -6 -45 -50 0 -79 81 -129 130 -80 21
21 21 36 -1 104 -10 34 0 50 24 40 22 -8 33 -50 18 -68 -9 -10 -7 -16 4 -26
13 -11 18 -10 30 6 19 25 19 48 0 84 -28 55 -84 66 -112 24z"/>
<path d="M3671 1085 c-24 -36 -42 -67 -40 -69 37 -31 171 -116 177 -112 5 3
27 32 50 64 36 52 40 61 27 72 -9 7 -17 11 -19 9 -1 -2 -17 -25 -36 -51 -32
-45 -33 -46 -56 -31 l-24 15 31 43 c28 39 32 65 9 65 -5 0 -21 -18 -37 -40
-30 -42 -42 -47 -61 -28 -9 9 -3 23 25 61 29 39 33 51 22 58 -21 13 -21 13
-68 -56z"/>
<path d="M1508 1033 c6 -2 18 -2 25 0 6 3 1 5 -13 5 -14 0 -19 -2 -12 -5z"/>
<path d="M1328 1014 c-40 -21 -34 -27 8 -9 20 8 48 13 63 10 22 -5 23 -4 6 4
-28 13 -46 12 -77 -5z"/>
<path d="M1594 1023 c3 -3 33 -7 67 -9 34 -2 60 -1 57 2 -3 3 -34 7 -68 9 -34
2 -59 1 -56 -2z"/>
<path d="M1265 981 c-3 -5 -2 -12 3 -15 5 -3 9 1 9 9 0 17 -3 19 -12 6z"/>
<path d="M1824 969 c15 -12 31 -17 38 -13 9 6 9 3 -1 -9 -9 -11 -10 -17 -2
-17 6 0 11 5 11 10 0 6 8 10 18 10 9 1 -5 10 -33 20 -62 25 -64 25 -31 -1z"/>
<path d="M1215 930 c-16 -16 -25 -33 -22 -37 4 -3 7 -1 7 6 0 7 5 9 13 5 6 -4
9 -4 5 1 -11 11 12 36 25 28 5 -3 7 -1 3 5 -3 5 0 13 6 15 7 3 8 6 2 6 -5 1
-23 -12 -39 -29z"/>
<path d="M1918 943 c10 -4 10 -8 0 -21 -10 -14 -10 -15 2 -4 8 6 21 12 30 12
12 -1 11 -4 -4 -15 -11 -8 -16 -15 -10 -15 5 0 17 7 27 14 16 13 15 15 -14 25
-32 11 -56 14 -31 4z"/>
<path d="M3553 934 c-3 -9 8 -45 26 -81 18 -36 30 -67 29 -69 -2 -2 -34 11
-71 28 -55 25 -69 29 -82 18 -8 -7 -15 -18 -15 -24 0 -6 34 -42 76 -80 67 -61
77 -67 91 -54 13 14 10 20 -31 54 -25 21 -44 39 -42 41 1 2 29 -8 61 -22 77
-34 88 -24 52 50 -15 30 -24 55 -20 55 4 0 23 -16 43 -35 33 -32 38 -34 50
-20 11 13 3 25 -61 85 -77 72 -95 81 -106 54z"/>
<path d="M1353 893 c9 -2 23 -2 30 0 6 3 -1 5 -18 5 -16 0 -22 -2 -12 -5z"/>
<path d="M2055 883 c11 -3 24 -9 30 -14 5 -5 13 -9 19 -9 5 0 1 7 -10 15 -10
8 -28 14 -39 14 l-20 -1 20 -5z"/>
<path d="M1275 870 c38 -15 158 -39 167 -34 22 14 5 26 -28 19 -21 -3 -40 -2
-43 3 -3 5 -31 11 -61 14 -30 3 -46 2 -35 -2z"/>
<path d="M1398 873 c6 -2 18 -2 25 0 6 3 1 5 -13 5 -14 0 -19 -2 -12 -5z"/>
<path d="M1565 850 c-3 -5 1 -10 10 -10 9 0 13 5 10 10 -3 6 -8 10 -10 10 -2
0 -7 -4 -10 -10z"/>
<path d="M2050 856 c0 -2 9 -6 20 -9 11 -3 18 -1 14 4 -5 9 -34 13 -34 5z"/>
<path d="M598 808 c-54 -23 -98 -46 -98 -50 0 -16 33 -21 61 -11 24 9 31 7 54
-17 25 -27 26 -29 11 -57 -13 -27 -13 -31 1 -46 15 -15 20 -8 63 91 45 104 49
133 16 132 -6 0 -55 -19 -108 -42z m71 -42 c-9 -20 -15 -23 -26 -15 -19 16
-16 28 10 38 29 11 30 9 16 -23z"/>
<path d="M2154 837 c-4 -7 -4 -9 1 -5 4 4 16 3 27 -3 11 -6 22 -9 24 -6 2 2
-7 9 -21 15 -18 9 -26 8 -31 -1z"/>
<path d="M1485 814 c17 -7 39 -13 50 -12 17 0 17 1 3 5 -10 2 -18 8 -18 11 0
4 -15 7 -33 8 l-32 1 30 -13z"/>
<path d="M947 799 c8 -8 16 -8 30 0 16 9 14 10 -11 11 -22 0 -27 -3 -19 -11z"/>
<path d="M1620 794 c23 -14 24 -15 3 -10 -61 15 -65 15 -28 -4 42 -20 95 -27
95 -11 0 5 -10 7 -22 3 -13 -3 -19 -1 -15 5 4 6 -5 15 -19 22 -35 16 -44 13
-14 -5z"/>
<path d="M2250 800 c8 -5 22 -9 30 -9 10 0 8 3 -5 9 -27 12 -43 12 -25 0z"/>
<path d="M1070 790 c14 -4 32 -8 40 -9 13 -1 13 0 0 9 -8 5 -26 9 -40 9 l-25
-1 25 -8z"/>
<path d="M1698 793 c7 -3 16 -2 19 1 4 3 -2 6 -13 5 -11 0 -14 -3 -6 -6z"/>
<path d="M1170 771 c25 -11 54 -20 65 -19 l20 0 -20 5 c-11 3 -24 9 -30 13 -5
4 -26 11 -45 14 -33 6 -33 5 10 -13z"/>
<path d="M992 764 c10 -10 20 -16 22 -13 3 3 -5 11 -17 18 -21 13 -21 12 -5
-5z"/>
<path d="M2348 753 c7 -3 16 -2 19 1 4 3 -2 6 -13 5 -11 0 -14 -3 -6 -6z"/>
<path d="M1279 719 c8 -15 23 -30 31 -33 8 -4 21 -9 28 -12 28 -13 9 14 -20
29 l-33 17 45 -5 c25 -3 38 -2 30 2 -54 22 -67 27 -81 28 -15 2 -15 0 0 -26z"/>
<path d="M1698 743 c6 -2 18 -2 25 0 6 3 1 5 -13 5 -14 0 -19 -2 -12 -5z"/>
<path d="M2390 743 c8 -3 18 -11 22 -17 4 -6 10 -7 15 -3 9 10 -16 27 -37 26
-13 -1 -13 -1 0 -6z"/>
<path d="M1760 733 c-24 -5 -23 -5 9 -19 19 -8 36 -12 39 -9 3 2 -3 7 -12 11
-9 3 -13 10 -10 15 3 5 4 8 2 8 -2 -1 -14 -4 -28 -6z"/>
<path d="M778 645 c-38 -46 -68 -86 -68 -88 0 -3 24 -23 54 -45 45 -34 56 -39
66 -27 9 10 4 19 -24 42 -20 15 -36 31 -36 34 0 3 23 34 50 68 54 67 56 73 38
89 -10 7 -31 -12 -80 -73z"/>
<path d="M1060 710 c14 -11 34 -29 45 -39 25 -22 55 -33 55 -21 0 6 -9 10 -20
10 -18 0 -25 11 -21 33 1 5 -4 5 -10 1 -7 -4 -17 0 -23 8 -6 8 -20 17 -31 21
-16 6 -15 3 5 -13z"/>
<path d="M1830 705 c0 -12 86 -55 110 -55 6 0 23 -6 38 -14 48 -24 69 -28 69
-11 0 8 -7 15 -16 16 -41 2 -146 35 -176 55 -23 16 -16 18 19 4 17 -6 26 -6
26 0 0 14 34 12 49 -2 11 -11 13 -10 9 2 -6 20 -128 24 -128 5z"/>
<path d="M2448 713 c7 -3 16 -2 19 1 4 3 -2 6 -13 5 -11 0 -14 -3 -6 -6z"/>
<path d="M1220 695 c-16 -19 -1 -19 24 0 16 12 17 15 4 15 -8 0 -21 -7 -28
-15z"/>
<path d="M1390 703 c8 -3 17 -9 20 -13 3 -4 21 -10 40 -14 l35 -6 -40 20 c-22
11 -47 19 -55 19 -13 -1 -13 -1 0 -6z"/>
<path d="M2484 698 c-4 -7 -3 -8 5 -4 6 4 25 0 43 -8 17 -9 33 -14 36 -11 4 4
-59 35 -72 35 -3 0 -8 -5 -12 -12z"/>
<path d="M1191 674 c0 -11 3 -14 6 -6 3 7 2 16 -1 19 -3 4 -6 -2 -5 -13z"/>
<path d="M3282 677 c-10 -12 -2 -24 104 -150 l24 -29 50 42 c49 41 64 70 36
70 -8 0 -28 -11 -44 -25 -17 -14 -32 -25 -35 -25 -3 0 -29 29 -58 65 -29 36
-56 65 -60 65 -3 0 -11 -6 -17 -13z"/>
<path d="M1235 654 c-20 -15 -12 -17 19 -5 11 4 15 10 10 13 -5 4 -18 0 -29
-8z"/>
<path d="M1514 649 c14 -11 30 -17 36 -14 5 3 15 3 22 -1 8 -5 6 -10 -8 -16
-15 -6 -13 -7 7 -3 27 5 125 -20 146 -37 7 -5 18 -8 24 -6 6 2 -6 11 -27 20
-116 47 -176 68 -184 63 -5 -3 -11 -1 -15 5 -3 5 -11 10 -17 10 -6 0 1 -9 16
-21z"/>
<path d="M2590 660 c8 -5 26 -10 39 -10 32 0 24 6 -19 14 -25 4 -31 3 -20 -4z"/>
<path d="M2650 640 c-13 -9 -13 -10 0 -10 8 0 22 5 30 10 13 9 13 10 0 10 -8
0 -22 -5 -30 -10z"/>
<path d="M1170 635 c0 0 9 -8 19 -17 18 -16 20 -15 18 1 0 9 -9 17 -19 17 -10
0 -18 -1 -18 -1z"/>
<path d="M1235 630 c-13 -6 -15 -9 -5 -9 8 0 22 4 30 9 18 12 2 12 -25 0z"/>
<path d="M2708 633 c6 -2 10 -9 7 -14 -4 -5 1 -6 10 -2 13 5 14 7 3 14 -7 5
-17 8 -23 8 -5 0 -4 -3 3 -6z"/>
<path d="M2067 616 c-4 -9 -3 -15 1 -13 4 1 29 -9 54 -23 40 -21 49 -22 60
-11 11 12 10 13 -6 7 -17 -6 -82 25 -97 47 -3 5 -9 2 -12 -7z"/>
<path d="M2779 610 c58 -14 149 -21 155 -11 3 5 -11 9 -32 8 -20 -1 -64 2 -97
5 -41 5 -49 4 -26 -2z"/>
<path d="M1593 595 c0 -8 4 -12 9 -9 5 3 6 10 3 15 -9 13 -12 11 -12 -6z"/>
<path d="M1236 590 c12 -5 25 -13 29 -19 3 -6 12 -11 18 -11 7 1 1 10 -12 20
-13 11 -31 20 -40 19 -11 0 -10 -3 5 -9z"/>
<path d="M1540 590 c-21 -7 -21 -8 -5 -9 11 0 27 4 35 9 18 11 5 11 -30 0z"/>
<path d="M2855 570 c-17 -8 -16 -8 8 -7 15 1 27 5 27 9 0 10 -9 9 -35 -2z"/>
<path d="M3124 566 c-5 -14 31 -215 41 -224 2 -3 11 1 19 7 10 8 13 23 9 45
-4 27 -1 35 23 51 26 17 29 17 60 0 23 -12 37 -14 49 -7 15 8 2 20 -75 76 -96
68 -117 76 -126 52z m70 -61 c19 -14 14 -35 -8 -35 -8 0 -16 11 -18 25 -6 28
-1 30 26 10z"/>
<path d="M1306 561 c-3 -5 0 -11 7 -14 8 -3 14 1 14 9 0 16 -13 19 -21 5z"/>
<path d="M1762 558 c-7 -7 -12 -16 -12 -22 0 -5 6 -1 14 9 13 18 15 18 39 2
30 -19 37 -21 37 -8 0 5 -14 14 -31 20 -38 13 -33 13 -47 -1z"/>
<path d="M2207 561 c-14 -5 -3 -12 43 -29 34 -12 66 -20 70 -17 5 3 11 1 15
-5 7 -12 25 -13 25 -2 0 11 -64 44 -81 42 -8 -1 -25 -2 -39 -1 -20 1 -22 3
-10 11 17 11 4 12 -23 1z m108 -31 c7 -12 -2 -12 -30 0 -19 8 -19 9 2 9 12 1
25 -3 28 -9z"/>
<path d="M2806 545 c-3 -8 -13 -15 -23 -15 -10 0 -27 -8 -38 -17 l-20 -16 20
8 c11 4 29 10 40 13 31 9 59 42 36 42 -5 0 -11 -7 -15 -15z"/>
<path d="M1346 542 c-6 -10 155 -82 181 -81 10 0 0 7 -22 15 -53 19 -129 57
-133 67 -5 9 -20 9 -26 -1z"/>
<path d="M2720 539 c0 -5 5 -7 10 -4 6 3 10 8 10 11 0 2 -4 4 -10 4 -5 0 -10
-5 -10 -11z"/>
<path d="M1850 529 c0 -5 5 -7 10 -4 6 3 10 8 10 11 0 2 -4 4 -10 4 -5 0 -10
-5 -10 -11z"/>
<path d="M1785 510 c27 -12 43 -12 25 0 -8 5 -22 9 -30 9 -10 0 -8 -3 5 -9z"/>
<path d="M1870 509 c-12 -8 -10 -9 8 -4 13 4 29 2 36 -4 9 -8 13 -7 13 2 0 16
-37 20 -57 6z"/>
<path d="M1705 499 c-11 -17 1 -21 15 -4 8 9 8 15 2 15 -6 0 -14 -5 -17 -11z"/>
<path d="M1960 490 c14 -11 30 -18 37 -15 7 2 15 -1 19 -7 4 -7 3 -8 -4 -4 -7
4 -12 2 -12 -5 0 -10 -3 -10 -12 -1 -7 7 -19 12 -27 12 -10 -1 -4 -7 12 -16
31 -17 35 -31 10 -37 -14 -4 -14 -5 3 -6 12 0 27 6 34 14 10 12 9 15 -6 15
-16 1 -17 2 -4 10 9 4 31 5 50 1 l35 -7 -29 -8 c-15 -4 -26 -9 -24 -11 2 -3
22 0 43 6 l39 11 -90 34 c-104 39 -107 40 -74 14z"/>
<path d="M2386 502 c-7 -12 47 -32 83 -31 17 1 11 4 -18 10 -25 5 -48 14 -52
20 -4 7 -9 8 -13 1z"/>
<path d="M937 493 c-22 -22 36 -72 69 -59 22 8 17 19 -19 44 -36 24 -40 25
-50 15z"/>
<path d="M2680 484 c-23 -11 -53 -14 -90 -11 -30 2 -64 0 -75 -4 -16 -8 -14
-9 9 -5 16 2 42 0 58 -4 30 -9 122 12 133 30 8 13 7 12 -35 -6z"/>
<path d="M1115 412 c-77 -69 -84 -78 -69 -89 15 -11 21 -10 41 9 23 21 24 21
59 4 32 -15 36 -20 32 -47 -4 -22 0 -33 15 -40 10 -6 20 -9 22 -7 2 2 7 56 11
119 9 151 4 153 -111 51z m72 -39 c-3 -3 -16 -2 -28 2 l-22 7 24 19 c23 18 24
18 27 -2 2 -12 1 -23 -1 -26z"/>
<path d="M1648 483 c7 -3 16 -2 19 1 4 3 -2 6 -13 5 -11 0 -14 -3 -6 -6z"/>
<path d="M1560 450 c8 -5 24 -9 35 -9 l20 0 -20 9 c-11 5 -27 9 -35 9 -13 1
-13 0 0 -9z"/>
<path d="M1632 455 c4 -5 3 -14 -3 -22 -9 -10 -7 -13 9 -13 23 0 24 31 1 38
-8 3 -11 1 -7 -3z"/>
<path d="M1920 451 c0 -10 30 -24 37 -17 3 2 -5 9 -16 16 -12 6 -21 7 -21 1z"/>
<path d="M1679 417 c5 -5 19 -7 32 -5 20 3 19 5 -9 9 -20 3 -29 2 -23 -4z"/>
<path d="M2128 423 c7 -3 16 -2 19 1 4 3 -2 6 -13 5 -11 0 -14 -3 -6 -6z"/>
<path d="M2164 418 c1 -7 5 -19 9 -26 7 -10 -16 -12 -108 -11 -64 0 -119 -2
-122 -5 -4 -3 61 -6 144 -6 115 0 153 3 162 14 9 11 6 16 -16 24 -55 21 -71
23 -69 10z m51 -18 c4 -6 11 -8 16 -5 5 4 9 1 9 -4 0 -16 -46 -13 -60 4 -10
13 -9 15 8 15 12 0 24 -5 27 -10z"/>
<path d="M1838 414 c-4 -3 -28 -6 -54 -6 -31 0 -43 -3 -33 -8 15 -10 95 -2
119 11 12 7 11 8 -6 9 -11 0 -23 -3 -26 -6z"/>
<path d="M1329 306 c-35 -99 -36 -104 -17 -109 20 -6 20 -6 49 76 7 20 16 37
19 37 3 0 11 -24 17 -52 27 -129 50 -139 86 -40 49 132 51 142 22 142 -7 0
-23 -28 -35 -62 l-23 -63 -12 35 c-7 20 -16 55 -20 78 -6 35 -26 62 -47 62 -2
0 -19 -47 -39 -104z"/>
<path d="M1830 391 c-35 -7 -35 -7 14 -13 57 -7 92 1 60 13 -22 9 -27 9 -74 0z"/>
<path d="M2265 380 c-8 -13 15 -13 35 0 12 8 11 10 -7 10 -12 0 -25 -4 -28
-10z"/>
<path d="M2628 349 c-26 -15 -39 -45 -32 -73 7 -29 58 -50 95 -41 34 8 57 -9
43 -32 -14 -24 -57 -28 -77 -9 -15 15 -47 12 -47 -3 0 -4 11 -18 25 -31 20
-19 32 -22 65 -17 54 7 80 31 80 73 0 45 -30 64 -98 64 -46 0 -53 3 -50 18 2
12 14 18 41 20 21 2 37 -1 37 -7 0 -13 10 -14 30 -1 12 7 12 12 -4 29 -21 23
-78 28 -108 10z"/>
<path d="M1597 258 c-9 -40 -19 -89 -22 -109 l-7 -36 57 -11 c45 -9 63 -9 84
1 53 25 79 129 43 174 -9 12 -37 27 -62 33 -25 6 -52 13 -61 16 -12 3 -19 -12
-32 -68z m121 -5 c6 -9 12 -30 12 -45 0 -34 -43 -83 -66 -74 -9 3 -22 6 -30 6
-17 0 -18 22 -2 90 12 51 13 52 42 46 17 -4 37 -14 44 -23z"/>
<path d="M2463 257 c4 -29 10 -67 13 -84 5 -26 2 -34 -19 -48 -44 -28 -63 -8
-79 82 -11 61 -18 79 -32 81 -17 4 -18 -1 -12 -61 12 -117 31 -147 96 -147 77
0 96 34 79 146 -11 73 -15 84 -32 84 -18 0 -19 -5 -14 -53z"/>
<path d="M1880 188 c-23 -51 -44 -98 -47 -104 -2 -6 5 -14 16 -17 15 -3 22 2
31 24 11 25 18 29 50 29 35 0 39 -3 50 -35 8 -24 18 -35 31 -35 26 0 24 9 -16
125 -19 55 -35 101 -35 102 0 2 -8 3 -19 3 -13 0 -29 -24 -61 -92z m70 -3 c0
-18 -5 -25 -20 -25 -17 0 -18 3 -8 25 6 14 15 25 20 25 4 0 8 -11 8 -25z"/>
<path d="M2114 163 c4 -59 9 -109 11 -111 2 -2 33 -1 69 3 57 6 66 10 66 27 0
18 -5 19 -49 13 l-49 -7 -7 91 c-6 83 -9 91 -28 91 -19 0 -20 -4 -13 -107z"/>
</g>
</svg>
